<?xml version="1.0" encoding="UTF-8"?>
<svg width="485" height="142" viewBox="0 0 485 142" fill="none" xmlns="http://www.w3.org/2000/svg">
<g clip-path="url(#clip0_10_499)">
<path d="M19.6861 123.248H-0.000976562V23.3705H19.6861V33.6085C22.3203 29.955 25.5489 27.0026 29.3674 24.7298C33.2412 22.4144 37.7602 21.2676 42.9224 21.2676C48.8402 21.2676 54.3526 22.3718 59.4638 24.5809C64.5729 26.79 69.0666 29.849 72.9382 33.7786C76.865 37.6658 79.9046 42.148 82.057 47.2672C84.2624 52.3864 85.364 57.8667 85.364 63.7293C85.364 69.6132 84.2624 75.1144 82.057 80.2973C79.9046 85.459 76.865 90.005 72.9382 93.9347C69.0666 97.8006 64.5729 100.859 59.4638 103.069C54.3526 105.256 48.8402 106.361 42.9224 106.361C37.7602 106.361 33.2412 105.235 29.3674 102.984C25.5489 100.668 22.3203 97.6732 19.6861 94.0197V123.248ZM42.6804 40.2361C38.5922 40.2361 34.935 41.3195 31.7086 43.4649C28.4801 45.5678 25.9521 48.3929 24.1225 51.9402C22.2949 55.5088 21.3801 59.4386 21.3801 63.7293C21.3801 68.0414 22.2949 71.9919 24.1225 75.603C25.9521 79.1503 28.4801 82.018 31.7086 84.1634C34.935 86.2663 38.5922 87.3071 42.6804 87.3071C46.8237 87.3071 50.6147 86.2663 54.0575 84.1634C57.5004 82.0605 60.2429 79.2354 62.2869 75.688C64.331 72.077 65.3541 68.1051 65.3541 63.7293C65.3541 59.4386 64.331 55.5088 62.2869 51.9402C60.2429 48.3929 57.5004 45.5678 54.0575 43.4649C50.6699 41.3195 46.8768 40.2361 42.6804 40.2361Z" fill="white"/>
<!-- Le reste du contenu SVG -->
</g>
<defs>
<clipPath id="clip0_10_499">
<rect width="485" height="142" fill="white"/>
</clipPath>
</defs>
</svg>